<svg xmlns="http://www.w3.org/2000/svg" viewBox="0 0 32 32">
  <defs>
    <linearGradient id="g" x1="0.2" y1="0" x2="0.8" y2="1">
      <stop offset="0%" stop-color="#c05a3a"/>
      <stop offset="100%" stop-color="#7e3418"/>
    </linearGradient>
    <radialGradient id="h" cx="0.38" cy="0.22" r="0.52" gradientUnits="objectBoundingBox">
      <stop offset="0%" stop-color="#ffffff" stop-opacity="0.22"/>
      <stop offset="100%" stop-color="#ffffff" stop-opacity="0"/>
    </radialGradient>
  </defs>
  <!-- Guitar pick shape: Dunlop 351 proportions, 85% of canvas, bezier curves -->
  <path d="M16 4.8 C20.4 4.8,26.4 7.6,26.4 12 C26.4 19.2,21.6 24.8,16 27.2 C10.4 24.8,5.6 19.2,5.6 12 C5.6 7.6,11.6 4.8,16 4.8Z" fill="url(#g)"/>
  <path d="M16 4.8 C20.4 4.8,26.4 7.6,26.4 12 C26.4 19.2,21.6 24.8,16 27.2 C10.4 24.8,5.6 19.2,5.6 12 C5.6 7.6,11.6 4.8,16 4.8Z" fill="url(#h)"/>
  <text x="16" y="15" font-family="Arial Black,Arial,system-ui,sans-serif" font-size="13" font-weight="900" text-anchor="middle" dominant-baseline="central" fill="#ffffff">B</text>
</svg>
